<svg height="24" viewBox="0 0 24 24" width="24" xmlns="http://www.w3.org/2000/svg"><path d="m10.18 17h-3.18v-2h3c.08-.68.23-1.36.5-2h-3.5v-2h4.82c.03-.03.05-.06.08-.1 1.27-1.26 2.94-1.9 4.6-1.9h-9.5v-2h10v2h-.5c1.62 0 3.24.61 4.5 1.82v-5.82c0-1.1-.89-2-2-2h-4.18c-.42-1.16-1.52-2-2.82-2s-2.4.84-2.82 2h-4.18c-1.1 0-2 .9-2 2v14c0 1.11.9 2 2 2h8.06c-.41-.26-.8-.55-1.16-.9-.9-.89-1.45-1.97-1.72-3.1m1.82-14c.55 0 1 .45 1 1s-.45 1-1 1-1-.45-1-1 .45-1 1-1m8.31 14.9c.44-.69.69-1.52.69-2.4 0-2.5-2-4.5-4.5-4.5s-4.5 2-4.5 4.5 2 4.5 4.5 4.5c.87 0 1.69-.25 2.38-.68l3.12 3.07 1.39-1.39zm-3.81.1c-1.38 0-2.5-1.12-2.5-2.5s1.12-2.5 2.5-2.5 2.5 1.12 2.5 2.5-1.12 2.5-2.5 2.5z"/></svg>